<?xml version="1.0" encoding="UTF-8" standalone="no"?>
<!DOCTYPE svg PUBLIC "-//W3C//DTD SVG 1.1//EN" "http://www.w3.org/Graphics/SVG/1.1/DTD/svg11.dtd">
<svg width="100%" height="100%" viewBox="0 0 3840 2160" version="1.1" xmlns="http://www.w3.org/2000/svg" xmlns:xlink="http://www.w3.org/1999/xlink" xml:space="preserve" xmlns:serif="http://www.serif.com/" style="fill-rule:evenodd;clip-rule:evenodd;stroke-linecap:round;stroke-linejoin:round;stroke-miterlimit:1.5;">
    <g id="NevulaLogo" transform="matrix(0.548455,0,0,0.548455,1136.79,484.944)">
        <g transform="matrix(11.903,0,0,11.903,4547.01,922.331)">
            <path d="M0,0C1.073,0.763 2.145,1.526 3.25,2.313C10.671,9.565 18.683,21.253 19.12,31.942C19.118,33.144 19.116,34.345 19.114,35.583C19.114,36.246 19.114,36.91 19.114,37.594C19.113,39.785 19.105,41.977 19.098,44.168C19.096,45.688 19.094,47.209 19.093,48.729C19.09,52.729 19.08,56.728 19.069,60.728C19.058,64.81 19.054,68.892 19.049,72.975C19.038,80.983 19.021,88.992 19,97L5,97C4.505,89.575 4.505,89.575 4,82C3.092,82.866 2.185,83.733 1.25,84.625C-9.033,93.359 -22.685,97.765 -36.129,97.277C-52.166,95.728 -65.648,89.695 -76.063,77.313C-85.469,65.141 -89.357,51.374 -88,36C-85.48,19.536 -76.741,6.405 -63.465,-3.465C-43.249,-16.056 -18.828,-13.431 0,0ZM-58,11C-59.454,12.021 -59.454,12.021 -60.938,13.063C-69.335,20.311 -72.896,30.451 -74.277,41.148C-74.861,52.584 -69.342,63.445 -61.875,71.75C-52.674,80.456 -41.659,82.465 -29.543,82.285C-24.095,82.062 -19.728,80.713 -15,78C-13.969,77.423 -12.938,76.845 -11.875,76.25C-3.793,69.925 3.391,62.375 5.648,52.027C7.153,39.074 5.733,28.654 -2,18C-8.444,10.091 -16.901,4.852 -27,3C-38.725,2.057 -48.519,3.724 -58,11Z" style="fill:rgb(18,18,18);fill-rule:nonzero;"/>
        </g>
        <g transform="matrix(11.903,0,0,11.903,3166.26,470.016)">
            <rect x="0" y="0" width="14" height="135" style="fill:rgb(18,18,18);fill-rule:nonzero;"/>
        </g>
        <g transform="matrix(11.903,0,0,11.903,2023.57,791.398)">
            <path d="M0,0L15,0C15.004,2.159 15.008,4.318 15.012,6.542C15.03,13.707 15.074,20.871 15.132,28.036C15.166,32.376 15.191,36.716 15.196,41.057C15.2,45.252 15.229,49.447 15.273,53.642C15.286,55.236 15.291,56.83 15.286,58.423C15.264,68.369 15.647,77.177 22.74,84.892C29.611,91.385 36.22,92.642 45.492,92.406C50.737,91.799 54.85,90.271 59,87C59.857,86.357 59.857,86.357 60.732,85.702C64.864,81.948 66.405,78.709 66.808,73.096C66.949,69.041 66.938,64.995 66.902,60.938C66.912,59.178 66.924,57.418 66.94,55.658C66.972,51.048 66.962,46.439 66.944,41.829C66.933,37.117 66.961,32.404 66.986,27.691C67.029,18.461 67.025,9.231 67,0L82,0L82,108L67,108C66.505,104.535 66.505,104.535 66,101C65.056,101.507 65.056,101.507 64.094,102.023C51.837,108.41 40.503,109.887 26.957,106.105C15.485,101.817 8.562,94.538 3.078,83.918C-0.465,74.328 -0.266,64.562 -0.195,54.492C-0.192,52.915 -0.189,51.337 -0.187,49.76C-0.179,45.64 -0.16,41.52 -0.137,37.4C-0.117,33.184 -0.108,28.967 -0.098,24.75C-0.076,16.5 -0.041,8.25 0,0Z" style="fill:rgb(18,18,18);fill-rule:nonzero;"/>
        </g>
        <g id="Logo">
            <path id="RightTri" d="M1104.3,1920.57L1249.65,2034.02C1434.54,2155.25 1603.36,2088.94 1643.56,1837.98L1804.11,862.987C1694.55,1348.23 1394.09,1708.5 1104.3,1920.57Z" style="fill:rgb(242,105,37);stroke:rgb(242,105,37);stroke-width:1px;"/>
            <g id="BackArch" transform="matrix(1,0,0,1,-66.517,4.97)">
                <path d="M1870.63,857.57C1932.97,984.876 2003.18,1204.43 1987.35,1421.97C1972.7,1623.29 1860.27,1768.42 1712.65,1813.08L1718.47,1783.78C1851.41,1735.51 1926.12,1608.73 1947.45,1420.93C1946.85,1260.09 1911.47,1114.16 1855.38,977.098C1852.12,969.174 1849.38,962.074 1846.02,954.217C1846.02,954.217 1870.31,860.93 1870.63,857.57Z" style="fill:rgb(0,82,156);stroke:rgb(0,82,156);stroke-width:1px;"/>
            </g>
            <g id="BackArch1" serif:id="BackArch" transform="matrix(1,0,0,1,-66.517,4.97)">
                <path d="M1870.63,858.017L1785.33,827.088C1689.99,646.709 1561.92,488.502 1386.25,362.547C1235.05,266.967 1097.82,195.172 934.498,201.818C698.472,211.422 604.446,359.684 593.843,615.818L459.11,673.048C446.738,456.353 478.363,299.303 584.314,195.938C681.658,100.969 776.49,72.226 926.28,72.076C1137.93,94.725 1297.89,180.815 1472.37,327.259C1628.6,448.031 1761.07,625.627 1870.63,858.017Z" style="fill:rgb(0,82,156);stroke:rgb(0,82,156);stroke-width:1px;"/>
            </g>
            <path id="LeftTri" d="M392.593,717.611C392.593,717.611 243.295,777.836 217.122,797.001C14.118,945.65 119.979,1098.77 254.626,1216.36L899.541,1745.92C815.605,1645.32 776.993,1643.2 647.795,1432.84C513.152,1213.61 436.635,975.223 392.593,717.611Z" style="fill:rgb(242,105,37);stroke:rgb(242,105,37);stroke-width:1px;"/>
            <g id="OuterV" transform="matrix(1.29782,-0.0409172,0.0390179,1.23758,-383.035,-208.155)">
                <path d="M1080.05,1619.95C1294.53,1438.79 1457.69,1227.04 1549.54,876.431L1657.59,919.921C1549.09,1340.22 1319.65,1589.1 1093.55,1756.23C1024.21,1695.07 923.363,1602.32 857.594,1513.16C756.285,1375.84 729.754,1303.94 718.836,1281.59C643.359,1127.11 599.508,956.482 574.587,766.759C574.587,766.759 677.741,730.564 678.581,731.406C685.696,738.537 682.591,951.773 828.681,1255.63C903.739,1411.75 1082.41,1632.56 1080.05,1619.95Z" style="fill:rgb(1,1,1);"/>
            </g>
            <path id="InnerV" d="M1081.89,1576.02C1296.37,1394.86 1443.77,1121.02 1535.62,770.41L1662.8,813.477C1565.41,1236.49 1313.85,1586.98 1081.74,1752.76C1062.43,1736.59 1061.32,1734.86 1051.77,1724.94C914.353,1582.22 808.239,1440.2 717.107,1267.18C630.702,1093.91 580.698,951.53 545.795,785.258C545.795,785.258 674.082,750.567 674.754,751.547C680.038,759.251 707.448,995.696 812.682,1198.53C913.691,1393.21 1084.24,1588.63 1081.89,1576.02Z" style="fill:rgb(242,105,37);stroke:rgb(242,105,37);stroke-width:1px;"/>
            <path id="UpperTri" d="M527.326,669.231L1532.84,286.268C1641.89,262.783 1730.95,271.784 1789.27,330.746C1853.3,412.309 1864.79,505.55 1843.2,606.139L1804.11,862.987C1629.37,798.191 1469.85,745.46 1329.99,721.887C1144.36,696.606 761.99,717.936 545.795,785.258L527.326,669.231Z" style="fill:rgb(0,82,156);stroke:rgb(0,82,156);stroke-width:1px;"/>
        </g>
        <g transform="matrix(11.903,0,0,11.903,190.517,858.864)">
            <path d="M-2.657,-1.033C-2.2,-0.667 2.889,1.846 7.042,5.425C11.315,9.107 14.643,13.857 14.178,14.322C13.261,15.239 10.258,18.085 9.246,18.938C7.295,20.791 5.619,22.617 3.887,24.662C-1.075,30.362 -6.455,35.642 -11.809,40.969C-12.92,42.078 -14.031,43.188 -15.142,44.297C-18.041,47.193 -20.943,50.086 -23.846,52.977C-26.818,55.939 -29.787,58.903 -32.756,61.867C-38.564,67.664 -44.375,73.458 -50.188,79.25C-49.073,80.062 -47.956,80.871 -46.838,81.678C-46.217,82.129 -45.595,82.58 -44.954,83.044C-37.802,87.924 -28.514,88.125 -20.188,87.25C-11.031,85.281 -3.688,81.559 2.25,74.25C4.813,72.25 4.813,72.25 6.941,72.316C11.051,73.176 14.984,74.521 18.813,76.25C17.475,83.792 10.115,89.287 4.27,93.648C-9.078,102.349 -24.455,104.388 -39.961,101.563C-54.574,97.397 -66.929,88.252 -74.719,75.152C-82.264,60.242 -82.807,45.118 -78.188,29.25C-73.273,15.811 -63.11,4.469 -50.188,-1.75C-34.44,-8.394 -17.744,-9.316 -2.657,-1.033ZM-59.426,24.875C-66.344,34.201 -67.285,44.997 -66.188,56.25C-65.021,61.099 -63.765,65.672 -60.188,69.25C-53.141,62.25 -46.1,55.244 -39.065,48.231C-35.799,44.976 -32.531,41.722 -29.259,38.472C-26.103,35.338 -22.953,32.2 -19.805,29.058C-18.601,27.857 -17.396,26.659 -16.188,25.462C-14.502,23.791 -12.823,22.113 -11.145,20.434C-10.64,19.936 -10.147,19.426 -9.614,18.926C-6.507,16.011 -7.724,12.987 -10.875,11.313C-11.706,10.871 -12.615,10.593 -13.512,10.223C-31.431,3.709 -47.676,11.21 -59.426,24.875Z" style="fill:rgb(19,18,18);fill-rule:nonzero;"/>
        </g>
        <g transform="matrix(11.903,0,0,11.903,-1192.46,838.034)">
            <path d="M0,0C0.786,0.401 1.573,0.802 2.383,1.215C12.082,6.887 16.997,15.656 20.147,26.148C21.711,33.213 21.488,40.254 21.391,47.457C21.383,49.098 21.377,50.738 21.373,52.379C21.358,56.651 21.319,60.924 21.275,65.196C21.233,69.574 21.215,73.952 21.195,78.33C21.153,86.887 21.085,95.443 21,104C18.688,104.027 16.375,104.046 14.063,104.063C12.775,104.074 11.487,104.086 10.16,104.098C7,104 7,104 6,103C5.907,100.752 5.885,98.502 5.89,96.252C5.889,94.788 5.889,93.325 5.888,91.861C5.89,91.08 5.891,90.3 5.892,89.495C5.896,85.362 5.87,81.229 5.85,77.096C5.825,71.836 5.809,66.576 5.825,61.316C5.837,57.067 5.819,52.82 5.783,48.571C5.774,46.958 5.776,45.345 5.789,43.731C5.859,34.361 5.607,26.356 -1,19C-7.86,13.372 -14.17,10.487 -23.09,10.691C-31.623,11.596 -37.641,15.438 -43,22C-45.43,25.645 -45.306,28.376 -45.319,32.593C-45.329,33.363 -45.339,34.134 -45.349,34.929C-45.38,37.477 -45.397,40.026 -45.414,42.574C-45.433,44.341 -45.452,46.108 -45.473,47.875C-45.524,52.526 -45.564,57.177 -45.601,61.827C-45.641,66.573 -45.692,71.319 -45.742,76.064C-45.839,85.376 -45.922,94.688 -46,104L-61,104L-61,1L-46,1C-45.67,1.66 -45.34,2.32 -45,3C-44.216,2.402 -43.433,1.804 -42.625,1.188C-30.586,-6.608 -12.532,-6.554 0,0Z" style="fill:rgb(18,18,18);fill-rule:nonzero;"/>
        </g>
    </g>
</svg>
