<?xml version="1.0"?>

<svg width="100%" height="100%" viewBox="0 0 2160 2160" version="1.1" xmlns="http://www.w3.org/2000/svg" xmlns:xlink="http://www.w3.org/1999/xlink" xml:space="preserve" xmlns:serif="http://www.serif.com/" style="fill-rule:evenodd;clip-rule:evenodd;stroke-linecap:round;stroke-linejoin:round;stroke-miterlimit:1.5;">
    <g id="NevulaLogo" transform="matrix(1,0,0,1,66.517,-4.97)">
        <path id="BackArch" d="M392.593,678.018L527.326,620.788C537.929,364.654 631.955,216.392 867.981,206.788C1031.3,200.142 1168.53,271.937 1319.73,367.517C1542.61,527.316 1688.86,739.028 1788.86,982.068C1844.95,1119.13 1880.33,1265.06 1880.93,1425.9C1859.6,1613.7 1784.89,1740.48 1651.95,1788.75L1646.13,1818.05C1793.75,1773.39 1906.18,1628.26 1920.83,1426.94C1936.74,1208.29 1866.7,990.018 1804.11,862.987C1694.55,630.597 1562.08,453.001 1405.85,332.229C1231.37,185.785 1071.41,99.695 859.763,77.046C709.973,77.196 615.141,105.939 517.797,200.908C411.846,304.273 380.221,461.323 392.593,678.018Z" style="fill:rgb(10,83,152);stroke:rgb(10,83,152);stroke-width:1px;"></path>
        <path id="LeftTri" d="M392.593,717.611C392.593,717.611 243.295,777.836 217.122,797.001C14.118,945.65 119.979,1098.77 254.626,1216.36L899.541,1745.92C815.605,1645.32 776.993,1643.2 647.795,1432.84C513.152,1213.61 436.635,975.223 392.593,717.611Z" style="fill:rgb(242,105,37);stroke:rgb(242,105,37);stroke-width:1px;"></path>
        <path d="M1104.3,1920.57L1249.65,2034.02C1434.54,2155.25 1603.36,2088.94 1643.56,1837.98L1804.11,862.987C1694.55,1348.23 1394.09,1708.5 1104.3,1920.57Z" style="fill:rgb(242,105,37);stroke:rgb(242,105,37);stroke-width:1px;"></path>
        <g id="OuterV" transform="matrix(1.29782,-0.0409172,0.0390179,1.23758,-383.035,-208.155)">
            <path d="M1080.05,1619.95C1294.53,1438.79 1457.69,1227.04 1549.54,876.431L1657.59,919.921C1549.09,1340.22 1319.65,1589.1 1093.55,1756.23C1024.21,1695.07 923.363,1602.32 857.594,1513.16C756.285,1375.84 729.754,1303.94 718.836,1281.59C643.359,1127.11 599.508,956.482 574.587,766.759C574.587,766.759 677.741,730.564 678.581,731.406C685.696,738.537 682.591,951.773 828.681,1255.63C903.739,1411.75 1082.41,1632.56 1080.05,1619.95Z" style="fill:rgb(1,1,1);stroke:rgb(1,1,1);stroke-width:0.79px;"></path>
        </g>
        <path id="InnerV" d="M1081.89,1576.02C1296.37,1394.86 1443.77,1121.02 1535.62,770.41L1662.8,813.477C1565.41,1236.49 1313.85,1586.98 1081.74,1752.76C1062.43,1736.59 1061.32,1734.86 1051.77,1724.94C914.353,1582.22 808.239,1440.2 717.107,1267.18C630.702,1093.91 580.698,951.53 545.795,785.258C545.795,785.258 674.082,750.567 674.754,751.547C680.038,759.251 707.448,995.696 812.682,1198.53C913.691,1393.21 1084.24,1588.63 1081.89,1576.02Z" style="fill:rgb(242,105,37);stroke:rgb(242,105,37);stroke-width:1px;"></path>
        <path id="UpperTri" d="M527.326,669.231L1532.84,286.268C1641.89,262.783 1730.95,271.784 1789.27,330.746C1853.3,412.309 1864.79,505.55 1843.2,606.139L1804.11,862.987C1629.37,798.191 1469.85,745.46 1329.99,721.887C1144.36,696.606 761.99,717.936 545.795,785.258L527.326,669.231Z" style="fill:rgb(2,84,157);stroke:rgb(2,84,157);stroke-width:1px;"></path>
    </g>
</svg>